<svg xmlns="http://www.w3.org/2000/svg" version="1.1" xmlns:xlink="http://www.w3.org/1999/xlink"
  xmlns:svgjs="http://svgjs.com/svgjs" width="1000" height="1000">
  <rect width="1000" height="1000" rx="200" ry="200" fill="#ffffff"></rect>
  <g transform="matrix(9.148014880770873,0,0,9.148014880770873,50.00635060837698,240.89271655858494)"><svg
      xmlns="http://www.w3.org/2000/svg" version="1.1" xmlns:xlink="http://www.w3.org/1999/xlink"
      xmlns:svgjs="http://svgjs.com/svgjs" width="98.382" height="56.649"><svg width="98.382" height="56.649"
        viewBox="0 0 26.03 14.988" xmlns="http://www.w3.org/2000/svg">
        <g font-size="25.4" font-family="antre" paint-order="stroke markers fill">
          <path
            d="M6.623 14.988c1.499 0 2.413-.762 4.09-2.768l3.454-4.115c.381-.457.381-1.143-.076-1.524-.457-.406-1.143-.381-1.575.127l-4.318 5.13c-.737.864-1.016.94-1.27.94a.65.65 0 01-.635-.66c0-.28.076-.61.229-.965.838-1.956 2.032-4.394 3.048-6.756.228-.534.177-1.016-.28-1.321l-1.448-.89.33-.38c.382-.457.382-1.143-.076-1.524C7.64-.125 6.953-.1 6.522.409L.273 7.8A1.041 1.041 0 00.4 9.324c.457.407 1.143.33 1.524-.127l4.547-5.385.736.432c-.787 1.88-1.778 3.937-2.692 6.02-.254.584-.508 1.32-.508 2.083 0 .711.229 1.346.66 1.829.483.508 1.194.812 1.956.812z"
            style="-inkscape-font-specification:antre" fill="#6366f1"></path>
          <path
            d="M25.7 9.752c-.457-.407-1.118-.407-1.55.101-1.777 2.083-3.555 2.921-5.562 2.921-1.245 0-2.26-.279-2.743-.914-.381-.508-.559-1.245-.407-2.057h2.337c3.505 0 6.147-1.702 6.147-4.801 0-2.362-1.905-3.505-3.81-3.505-1.016 0-2.007.152-2.92.635-.966.482-1.931 1.32-3.024 2.616l-3.53 4.191c-.407.457-.407 1.168.05 1.575.204.178.458.254.712.254.305 0 .61-.102.838-.356l1.143-1.371c-.406 1.549-.102 3.048.711 4.14.66.889 1.88 1.803 4.293 1.803 2.946 0 5.36-1.244 7.366-3.708.355-.432.406-1.118-.05-1.524zm-3.988-4.166c-.38 1.804-2.464 2.032-3.937 2.032h-1.727c.025-.152.076-.33.127-.508.584-2.032 1.88-3.429 3.835-3.429 1.194 0 1.956.788 1.702 1.905z"
            style="-inkscape-font-specification:antre" fill="#c026d3"></path>
        </g>
      </svg></svg></g>
</svg>