<svg height="196.589" width="250.69" xmlns="http://www.w3.org/2000/svg">
  <g aria-label="P">
    <path class="prefix__c1"
      d="M72.356 0l.002.002h-55.38c.03 0 .06.005.09.005L16.98.005V.004H0v33.924h14.764v47.22h-.002v33.925h.005l-.003.002v81.146h33.958V115.07h23.634c31.81 0 57.596-25.76 57.596-57.535C129.952 25.76 104.165 0 72.356 0zm0 81.147H48.722v-47.22l.007-.003h23.627c13.054 0 23.636 10.571 23.636 23.612 0 13.04-10.582 23.61-23.636 23.61z"
      fill="#4e49cd" />
    <path class="prefix__c3"
      d="M72.356 0l.002.002L0 .004v33.924l72.356-.004c13.054 0 23.636 10.571 23.636 23.612 0 13.04-10.582 23.61-23.636 23.61l-57.594.002v33.925l57.594-.002c31.81 0 57.596-25.76 57.596-57.536S104.165 0 72.356 0z"
      fill="#6366f1" />
    <path class="prefix__c2" d="M16.98.004H0v33.924h48.722v-2.214C48.702 14.21 34.502.026 16.98.006" fill="#4f46e5" />
    <path class="prefix__c2" fill="#6366f1" d="M48.72 81.15H14.765v33.921H48.72V81.15" />
  </g>
  <g aria-label="a">
    <path class="prefix__c3" fill="#a21caf" d="M216.73 73.007h33.96v123.58h-33.96z" />
    <path class="prefix__c1"
      d="M216.73 79.638a61.41 61.41 0 00-27.83-6.63c-25.555-.007-48.477 15.72-57.67 39.564-9.191 23.846-2.756 50.89 16.191 68.038 18.947 17.15 46.496 20.865 69.31 9.348a61.86 61.86 0 0033.96-55.16 61.862 61.862 0 00-33.96-55.16zm-17.18 80.875a27.833 27.833 0 11-10.65-53.545c15.363.017 27.813 12.468 27.83 27.83a27.832 27.832 0 01-17.18 25.715z"
      fill="#d946ef" />
    <path class="prefix__c2" d="M216.73 79.638v110.32a61.86 61.86 0 0033.96-55.16 61.862 61.862 0 00-33.96-55.16z"
      fill="#c026d3" />
  </g>
</svg>