<?xml version="1.0" encoding="UTF-8" standalone="no"?>
<svg width="225.6219" height="176.93059" preserveAspectRatio="xMidYMid" version="1.1" id="svg20"
   sodipodi:docname="logo.svg" inkscape:version="1.2.2 (732a01da63, 2022-12-09)" viewBox="0 0 250.691 196.58954"
   xmlns:inkscape="http://www.inkscape.org/namespaces/inkscape"
   xmlns:sodipodi="http://sodipodi.sourceforge.net/DTD/sodipodi-0.dtd" xmlns="http://www.w3.org/2000/svg"
   xmlns:svg="http://www.w3.org/2000/svg">
   <defs id="defs24" />
   <sodipodi:namedview id="namedview22" pagecolor="#ffffff" bordercolor="#000000" borderopacity="0.25"
      inkscape:showpageshadow="2" inkscape:pageopacity="0" inkscape:pagecheckerboard="0" inkscape:deskcolor="#d1d1d1"
      showgrid="false" inkscape:zoom="2.7541528" inkscape:cx="87.685766" inkscape:cy="63.54041"
      inkscape:window-width="1920" inkscape:window-height="1009" inkscape:window-x="-8" inkscape:window-y="-8"
      inkscape:window-maximized="1" inkscape:current-layer="svg20" />
   <g aria-label="P" id="g10">
      <path class="prefix__prefix__prefix__c1"
         d="m 72.356,0 0.002,0.002 h -55.38 c 0.03,0 0.06,0.005 0.09,0.005 L 16.98,0.005 V 0.004 H 0 v 33.924 h 14.764 v 47.22 h -0.002 v 33.925 h 0.005 l -0.003,0.002 v 81.146 H 48.722 V 115.07 h 23.634 c 31.81,0 57.596,-25.76 57.596,-57.535 C 129.952,25.76 104.165,0 72.356,0 Z m 0,81.147 H 48.722 v -47.22 l 0.007,-0.003 h 23.627 c 13.054,0 23.636,10.571 23.636,23.612 0,13.04 -10.582,23.61 -23.636,23.61 z"
         fill="#4e49cd" id="path2" />
      <path class="prefix__prefix__prefix__c3"
         d="M 72.356,0 72.358,0.002 0,0.004 v 33.924 l 72.356,-0.004 c 13.054,0 23.636,10.571 23.636,23.612 0,13.04 -10.582,23.61 -23.636,23.61 l -57.594,0.002 v 33.925 l 57.594,-0.002 c 31.81,0 57.596,-25.76 57.596,-57.536 C 129.952,25.759 104.165,0 72.356,0 Z"
         fill="#6366f1" id="path4" />
      <path class="prefix__prefix__prefix__c2"
         d="M 16.98,0.004 H 0 V 33.928 H 48.722 V 31.714 C 48.702,14.21 34.502,0.026 16.98,0.006" fill="#4f46e5"
         id="path6" />
      <path class="prefix__prefix__prefix__c2" fill="#6366f1" d="M 48.72,81.15 H 14.765 v 33.921 H 48.72 V 81.15"
         id="path8" />
   </g>
   <g aria-label="a" id="g18">
      <path class="prefix__prefix__prefix__c3" fill="#a21caf" d="m 216.73,73.007 h 33.96 v 123.58 h -33.96 z"
         id="path12" />
      <path class="prefix__prefix__prefix__c1"
         d="m 216.73,79.638 a 61.41,61.41 0 0 0 -27.83,-6.63 c -25.555,-0.007 -48.477,15.72 -57.67,39.564 -9.191,23.846 -2.756,50.89 16.191,68.038 18.947,17.15 46.496,20.865 69.31,9.348 a 61.86,61.86 0 0 0 33.96,-55.16 61.862,61.862 0 0 0 -33.96,-55.16 z m -17.18,80.875 A 27.833,27.833 0 1 1 188.9,106.968 c 15.363,0.017 27.813,12.468 27.83,27.83 a 27.832,27.832 0 0 1 -17.18,25.715 z"
         fill="#d946ef" id="path14" />
      <path class="prefix__prefix__prefix__c2"
         d="m 216.73,79.638 v 110.32 a 61.86,61.86 0 0 0 33.96,-55.16 61.862,61.862 0 0 0 -33.96,-55.16 z"
         fill="#c026d3" id="path16" />
   </g>
</svg>